<svg width="396" height="333" viewBox="0 0 396 333" fill="none" xmlns="http://www.w3.org/2000/svg">
<path d="M98.218 332.581C117.082 332.581 132.374 330.474 132.374 327.876C132.374 325.277 117.082 323.171 98.218 323.171C79.3542 323.171 64.062 325.277 64.062 327.876C64.062 330.474 79.3542 332.581 98.218 332.581Z" fill="#E4EFEE"/>
<path d="M193.486 332.581C212.35 332.581 227.642 330.474 227.642 327.876C227.642 325.277 212.35 323.171 193.486 323.171C174.622 323.171 159.33 325.277 159.33 327.876C159.33 330.474 174.622 332.581 193.486 332.581Z" fill="#E4EFEE"/>
<path d="M309.535 332.581C328.399 332.581 343.691 330.474 343.691 327.876C343.691 325.277 328.399 323.171 309.535 323.171C290.671 323.171 275.379 325.277 275.379 327.876C275.379 330.474 290.671 332.581 309.535 332.581Z" fill="#E4EFEE"/>
<path d="M365.271 311.201C351.361 275.034 316.05 272.005 316.05 272.005C315.933 288.783 319.261 301.523 324.325 311.201H365.271Z" fill="#5FCECE"/>
<path d="M389.447 311.201C405.095 276.403 387.612 245.965 387.612 245.965C355.844 267.708 346.577 291.687 345.794 311.201H389.447Z" fill="#73E2E5"/>
<path d="M365.271 311.201C365.271 311.201 376.462 271.966 384.319 258.715C384.319 258.715 375.448 296.083 368.858 311.201H365.271Z" fill="#5FCECE"/>
<path d="M119.278 311.201C111.606 291.255 92.1322 289.584 92.1322 289.584C92.0682 298.837 93.9032 305.864 96.6962 311.201H119.278Z" fill="#5FCECE"/>
<path d="M137.97 311.201C146.253 294.261 142.572 278.171 142.572 278.171C118.23 285.81 106.868 298.862 101.801 311.201H137.97Z" fill="#73E2E5"/>
<path d="M121.866 311.201C129.184 300.7 137.72 286.105 137.72 286.105C132.333 291.018 123.536 303.498 118.316 311.201H121.866Z" fill="#5FCECE"/>
<path d="M68.2931 311.201C73.0841 298.929 74.4371 282.534 67.6521 260.955C67.6521 260.955 35.7361 273.831 32.2351 311.201H68.2931Z" fill="#5FCECE"/>
<path d="M50.3321 311.201C46.2991 295.075 34.1031 275.957 0.966118 265.617C0.966118 265.617 -4.42188 289.287 10.8461 311.201H50.3321Z" fill="#73E2E5"/>
<path d="M26.195 311.201C26.195 311.201 12.782 289.808 8.38403 279.033C8.38403 279.033 23.776 300.49 29.713 311.201H26.195Z" fill="#5FCECE"/>
<path d="M298.8 34.524C297.38 30.379 293.885 27.198 289.55 26.225C287.173 18.251 279.789 12.436 271.043 12.436C264.268 12.436 258.312 15.927 254.865 21.206C254.767 21.204 254.672 21.191 254.573 21.191C248.67 21.191 243.572 24.587 241.09 29.524C237.526 29.602 234.439 31.6 232.815 34.524H298.8Z" fill="#CAFFFC"/>
<path d="M90.4642 115.046C88.7372 110.004 84.4852 106.135 79.2122 104.951C76.3212 95.252 67.3392 88.179 56.7002 88.179C48.4592 88.179 41.2142 92.4259 37.0212 98.8459C36.9022 98.8439 36.7862 98.828 36.6662 98.828C29.4862 98.828 23.2852 102.959 20.2662 108.965C15.9302 109.059 12.1752 111.49 10.2002 115.046H90.4642Z" fill="#CAFFFC"/>
<path d="M385.926 197.36C384.199 192.318 379.947 188.449 374.674 187.265C371.783 177.566 362.801 170.492 352.162 170.492C343.921 170.492 336.676 174.739 332.483 181.159C332.364 181.157 332.248 181.141 332.128 181.141C324.948 181.141 318.747 185.272 315.728 191.278C311.392 191.372 307.637 193.803 305.662 197.359L385.926 197.36Z" fill="#CAFFFC"/>
<path d="M29.4041 246.257C28.5581 246.257 28.5591 244.944 29.4041 244.944C30.2501 244.944 30.2491 246.257 29.4041 246.257ZM37.9741 230.484C37.0691 230.484 37.0681 231.89 37.9741 231.89C38.8791 231.89 38.8801 230.484 37.9741 230.484ZM21.8411 223.036C21.5061 222.58 20.9421 222.58 20.6061 223.036C20.3701 223.357 20.3891 223.625 20.4551 223.998C20.5891 224.758 21.8581 224.759 21.9921 223.998C22.0591 223.62 22.0741 223.353 21.8411 223.036ZM37.1951 198.354C36.0491 198.354 36.0471 200.135 37.1951 200.135C38.3411 200.136 38.3431 198.354 37.1951 198.354ZM377.692 144.32C377.692 144.804 377.388 145.239 376.95 145.423C376.468 145.626 376.023 145.482 375.631 145.173C375.595 145.144 375.558 145.116 375.522 145.087C375.099 144.754 375.097 143.887 375.522 143.552C375.558 143.523 375.594 143.495 375.631 143.466C376.059 143.128 376.585 142.98 377.094 143.277C377.453 143.487 377.692 143.904 377.692 144.32ZM363.241 136.051C362.125 136.051 362.123 137.785 363.241 137.785C364.357 137.786 364.359 136.051 363.241 136.051ZM368.481 124.979C368.429 125.001 368.377 125.023 368.325 125.045C367.592 125.355 367.592 126.667 368.325 126.977C368.377 126.999 368.429 127.021 368.481 127.043C369.284 127.382 370.28 127.005 370.28 126.011C370.279 125.017 369.284 124.64 368.481 124.979ZM367.136 105.667C366.02 105.667 366.018 107.401 367.136 107.401C368.252 107.401 368.254 105.667 367.136 105.667Z" fill="#73E2E5"/>
<path d="M224.308 272.656C224.308 289.998 210.25 304.056 192.908 304.056C175.566 304.056 161.508 289.998 161.508 272.656C161.508 255.314 175.566 241.256 192.908 241.256C210.249 241.256 224.308 255.314 224.308 272.656ZM144.826 223.312C147.045 225.531 149.706 227.165 152.558 228.146C157.564 229.869 163.159 229.586 167.985 226.936C175.389 222.871 183.878 220.552 192.906 220.552C201.934 220.552 210.424 222.871 217.828 226.936C223.432 230.012 230.071 229.9 235.621 227.16C237.576 226.195 239.395 224.905 240.987 223.313C245.997 218.303 247.675 211.436 246.349 205.186C245.214 199.837 241.88 194.939 236.554 192.041C223.569 184.976 208.7 180.957 192.905 180.957C177.111 180.957 162.242 184.976 149.257 192.041C142.97 195.462 139.459 201.669 139.064 208.115C138.736 213.511 140.589 219.075 144.826 223.312ZM58.3551 136.841L58.4241 136.911C62.8541 141.341 68.9391 143.282 74.7831 142.577C78.2901 142.154 81.7091 140.778 84.6321 138.415C114.258 114.467 151.932 100.102 192.905 100.102C233.879 100.102 271.553 114.467 301.18 138.415C305.077 141.565 309.858 142.961 314.55 142.683C319.242 142.405 323.845 140.454 327.389 136.91L327.458 136.841C331.877 132.422 333.754 126.458 333.153 120.744C332.631 115.784 330.241 111.012 326.022 107.603C289.598 78.1641 243.279 60.5071 192.905 60.5071C142.532 60.5071 96.2131 78.1641 59.7891 107.604C52.9801 113.107 50.9351 122.159 53.8191 129.823C54.7831 132.377 56.2921 134.778 58.3551 136.841ZM101.279 179.765L101.341 179.827C104.225 182.711 107.789 184.507 111.541 185.21C116.839 186.202 122.513 185.015 127.178 181.635C145.669 168.239 168.378 160.328 192.907 160.328C217.436 160.328 240.146 168.239 258.637 181.636C263.877 185.432 270.389 186.463 276.213 184.745C279.245 183.85 282.091 182.211 284.473 179.828L284.535 179.766C289.45 174.851 291.204 168.055 289.944 161.817C289.018 157.233 286.464 152.949 282.341 149.935C257.235 131.583 226.318 120.733 192.907 120.733C159.497 120.733 128.58 131.582 103.474 149.935C96.6681 154.91 94.1381 163.342 96.1461 170.88C97.0101 174.122 98.7141 177.2 101.279 179.765Z" fill="#12979E"/>
<path d="M230.164 272.656C230.164 289.998 216.106 304.056 198.764 304.056C181.422 304.056 167.364 289.998 167.364 272.656C167.364 255.314 181.422 241.256 198.764 241.256C216.106 241.256 230.164 255.314 230.164 272.656ZM150.682 223.312C152.901 225.531 155.562 227.165 158.414 228.146C163.42 229.869 169.015 229.586 173.841 226.936C181.245 222.871 189.734 220.552 198.762 220.552C207.79 220.552 216.28 222.871 223.684 226.936C229.288 230.012 235.927 229.9 241.477 227.16C243.432 226.195 245.251 224.905 246.843 223.313C251.853 218.303 253.531 211.436 252.205 205.186C251.07 199.837 247.737 194.939 242.41 192.041C229.425 184.976 214.555 180.957 198.761 180.957C182.967 180.957 168.098 184.976 155.113 192.041C148.826 195.462 145.315 201.669 144.92 208.115C144.592 213.511 146.445 219.075 150.682 223.312ZM64.2111 136.841L64.2801 136.911C68.7101 141.341 74.7951 143.282 80.6391 142.577C84.1461 142.154 87.5651 140.778 90.4891 138.415C120.115 114.467 157.789 100.102 198.762 100.102C239.736 100.102 277.41 114.467 307.037 138.415C310.935 141.565 315.715 142.961 320.407 142.683C325.099 142.405 329.702 140.454 333.246 136.91L333.315 136.841C337.733 132.422 339.611 126.458 339.01 120.744C338.488 115.784 336.098 111.012 331.879 107.603C295.455 78.1641 249.136 60.5071 198.762 60.5071C148.389 60.5071 102.071 78.1641 65.6461 107.604C58.8381 113.107 56.7921 122.159 59.6761 129.823C60.6391 132.377 62.1481 134.778 64.2111 136.841ZM107.135 179.765L107.197 179.827C110.082 182.711 113.645 184.507 117.397 185.21C122.695 186.202 128.369 185.015 133.034 181.635C151.525 168.239 174.234 160.328 198.763 160.328C223.292 160.328 246.002 168.239 264.493 181.636C269.733 185.432 276.245 186.463 282.069 184.745C285.101 183.85 287.947 182.211 290.33 179.828L290.392 179.766C295.307 174.851 297.061 168.055 295.801 161.817C294.875 157.233 292.321 152.949 288.197 149.935C263.091 131.583 232.174 120.733 198.763 120.733C165.353 120.733 134.436 131.582 109.33 149.935C102.524 154.91 99.9941 163.342 102.002 170.88C102.866 174.122 104.57 177.2 107.135 179.765Z" fill="#26B6C3"/>
<path d="M122.104 71.9561C122.104 71.9561 132.35 75.8601 145.229 71.5751V58.6551L129.134 56.8201L121.493 61.9661L122.104 71.9561Z" fill="#494949"/>
<path d="M126.106 103.987C126.106 103.987 123.581 116.126 129.719 119.607C130.331 119.954 131.041 119.975 131.645 119.723C132.072 119.545 132.446 119.231 132.694 118.799C133.287 117.769 133.738 116.045 133.302 113.214C132.387 107.266 130.45 103.647 128.966 103.148C127.482 102.649 126.106 103.987 126.106 103.987Z" fill="#EF4B4B"/>
<path d="M124.816 98.4932L126.987 107.742C127.107 108.255 127.465 108.657 127.921 108.852C128.171 108.958 128.451 109.003 128.737 108.968C129.292 108.902 129.746 108.561 129.98 108.098C130.121 107.819 130.182 107.496 130.137 107.162L128.813 97.3162L124.816 98.4932Z" fill="#FFBB7D"/>
<path d="M125.168 48.2489C125.168 48.2489 125.149 48.1499 125.116 47.9839L122.445 47.7859L125.168 48.2489Z" fill="#28587C"/>
<path d="M145.001 47.7849L142.33 47.9829C142.297 48.1499 142.278 48.2479 142.278 48.2479L145.001 47.7849Z" fill="#28587C"/>
<path d="M148.886 29.03C144.304 22.042 138.632 22.553 138.632 22.553L133.722 24.416L128.812 22.553C128.812 22.553 123.141 22.042 118.558 29.03C113.976 36.018 104.357 48.409 106.818 51.984C109.279 55.56 120.842 60.92 120.842 60.92L122.422 57.179C122.422 57.179 112.506 50.373 112.784 49.544C113.06 48.721 122.648 35.791 122.647 35.18C122.701 35.718 124.762 46.196 125.114 47.982L133.675 48.616V48.623L133.721 48.619L133.767 48.623V48.616L142.328 47.982C142.68 46.195 144.741 35.717 144.795 35.18C144.794 35.791 154.382 48.721 154.658 49.544C154.936 50.373 145.02 57.179 145.02 57.179L146.6 60.92C146.6 60.92 158.164 55.559 160.624 51.984C163.087 48.409 153.469 36.018 148.886 29.03Z" fill="#FF871A"/>
<path d="M131.647 19.5469C131.647 19.5469 125.917 19.0429 125.993 30.6249C125.993 30.6249 129.621 27.7889 133.87 29.0029C133.87 29.0029 138.847 28.1929 141.281 30.5419C141.281 30.5419 141.614 21.4379 135.452 19.4189L131.647 19.5469Z" fill="#C5EEF9"/>
<path d="M131.274 18.163C131.273 18.116 130.105 22.13 130.385 23.93C130.665 25.73 133.104 29.381 133.87 29.003C134.636 28.626 136.361 24.589 136.364 23.76C136.368 22.658 135.842 19.946 134.822 17.929L131.274 18.163Z" fill="#E59553"/>
<path d="M127.08 14.5331C123.469 10.7931 124.185 5.49707 126.854 5.20907C126.854 5.20907 128.542 0.197069 133.361 0.195069C138.444 0.193069 145.507 6.26007 139.665 14.1931L127.08 14.5331Z" fill="#494949"/>
<path d="M140.029 13.543C139.485 13.029 139.002 13.454 138.705 13.872C138.826 13.137 138.916 12.337 138.941 11.414C138.941 11.414 137.996 8.38604 135.968 8.83404C133.94 9.28204 130.42 10.929 129.158 8.43604C129.158 8.43604 127.216 9.59304 127.945 13.744C127.945 13.744 127.948 13.767 127.951 13.782C127.651 13.398 127.199 13.067 126.694 13.544C125.82 14.37 127.209 17.124 128.598 16.046C129.289 17.737 130.654 19.769 133.271 19.947C133.271 19.947 136.583 20.271 138.147 16.062C139.527 17.095 140.898 14.364 140.029 13.543Z" fill="#FFBB7D"/>
<path d="M134.474 44.4092H118.336C117.795 44.4092 117.314 44.6302 116.969 44.9822C116.556 45.4032 116.338 46.0102 116.447 46.6482L119.522 64.6992C119.599 65.1522 119.832 65.5452 120.159 65.8282C120.497 66.1202 120.937 66.2942 121.412 66.2942H134.475H146.331C146.704 66.2942 147.056 66.1872 147.353 65.9992C147.801 65.7172 148.126 65.2522 148.221 64.6992L151.296 46.6482C151.387 46.1152 151.249 45.6032 150.96 45.2032C150.614 44.7262 150.053 44.4092 149.406 44.4092H134.474Z" fill="#999999"/>
<path d="M124.21 101.613C124.21 101.613 113.213 66.049 116.036 60.507C119.042 54.605 125.662 56.1709 126.854 63.9949C128.046 71.8189 130.454 100.169 130.454 100.169L124.21 101.613Z" fill="#494949"/>
<path d="M143.839 103.987C143.839 103.987 146.364 116.126 140.227 119.607C139.615 119.954 138.905 119.975 138.301 119.723C137.874 119.545 137.5 119.231 137.252 118.799C136.659 117.769 136.208 116.045 136.644 113.214C137.559 107.266 139.496 103.647 140.98 103.148C142.462 102.649 143.839 103.987 143.839 103.987Z" fill="#EF4B4B"/>
<path d="M145.128 98.4932L142.957 107.742C142.837 108.255 142.479 108.657 142.023 108.852C141.773 108.958 141.493 109.003 141.207 108.968C140.652 108.902 140.198 108.561 139.964 108.098C139.823 107.819 139.762 107.496 139.807 107.162L141.131 97.3162L145.128 98.4932Z" fill="#FFBB7D"/>
<path d="M145.734 101.613C145.734 101.613 156.731 66.049 153.908 60.507C150.902 54.605 144.282 56.1709 143.09 63.9949C141.898 71.8189 139.49 100.169 139.49 100.169L145.734 101.613Z" fill="#494949"/>
<path d="M232.169 286.591L234.35 284.664C234.35 284.664 234.357 282.826 234.885 281.175C235.413 279.524 234.641 278.91 235.394 278.981C236.146 279.052 236.211 280.164 236.136 281.004C236.061 281.843 236.342 281.98 236.906 281.438C237.47 280.896 238.22 278.132 238.791 278.29C239.362 278.448 240.064 279.671 240.005 281.284C239.946 282.896 239.287 285.242 236.323 286.626L233.926 289.186L232.169 286.591Z" fill="#FFBB7D"/>
<path d="M232.252 285.811L221.133 293.742C219.844 293.355 207.637 281.247 207.637 281.247C203.942 278.063 200.487 278.357 200.487 278.357L195.577 280.22L190.667 278.357C190.667 278.357 184.996 277.846 180.413 284.834C175.831 291.822 166.212 304.213 168.673 307.788C171.134 311.364 182.697 316.724 182.697 316.724L184.277 312.983C184.277 312.983 174.361 306.177 174.639 305.348C174.915 304.525 184.503 291.595 184.502 290.984C184.557 291.522 186.617 302 186.969 303.786L195.53 304.42V304.427L195.576 304.424L195.622 304.427V304.42L204.183 303.786C204.492 302.215 206.122 293.931 206.548 291.585L207.336 292.164C207.336 292.164 220 300.511 221.418 300.96C222.836 301.409 235.087 289.421 235.087 289.421L232.252 285.811Z" fill="#494949"/>
<path d="M189.074 269.997C189.074 269.997 186.785 265.372 189.393 261.611C192.196 257.57 199.545 258.415 201.644 261.974C203.895 265.791 201.444 270.402 201.444 270.402L192.196 270.461L189.074 269.997Z" fill="#494949"/>
<path d="M187.023 304.052C187.023 304.052 187.004 303.953 186.971 303.787L184.3 303.589L187.023 304.052Z" fill="#28587C"/>
<path d="M206.856 303.589L204.185 303.787C204.152 303.954 204.133 304.052 204.133 304.052L206.856 303.589Z" fill="#28587C"/>
<path d="M193.502 275.351C193.502 275.351 187.773 274.847 187.848 286.429C187.848 286.429 191.476 283.593 195.725 284.807C195.725 284.807 200.702 283.997 203.136 286.346C203.136 286.346 203.469 277.242 197.307 275.223L193.502 275.351Z" fill="#EF4B4B"/>
<path d="M193.13 273.966C193.129 273.919 191.961 277.933 192.241 279.733C192.521 281.533 194.96 285.184 195.726 284.806C196.492 284.429 198.217 280.392 198.22 279.563C198.224 278.461 197.698 275.749 196.678 273.732L193.13 273.966Z" fill="#E59553"/>
<path d="M201.884 269.346C201.34 268.832 200.857 269.257 200.56 269.675C200.681 268.94 200.771 268.14 200.796 267.217C200.796 267.217 200.832 264.246 198.804 264.694C196.92 265.11 195.752 266.566 191.936 264.722C191.568 264.544 191.151 264.541 190.799 264.689C190.532 264.801 190.303 265.001 190.162 265.278C189.754 266.08 189.426 267.421 189.799 269.548C189.799 269.548 189.802 269.571 189.805 269.586C189.505 269.202 189.052 268.871 188.548 269.348C187.674 270.174 189.063 272.928 190.452 271.85C191.143 273.541 192.508 275.573 195.125 275.751C195.125 275.751 198.437 276.075 200.001 271.866C201.383 272.899 202.753 270.168 201.884 269.346Z" fill="#FFBB7D"/>
<path d="M196.329 297.897H180.191C179.65 297.897 179.169 298.119 178.824 298.47C178.411 298.891 178.193 299.498 178.302 300.136L181.377 318.187C181.454 318.64 181.687 319.034 182.014 319.316C182.352 319.608 182.792 319.782 183.267 319.782H196.33H208.186C208.559 319.782 208.911 319.674 209.208 319.487C209.656 319.205 209.981 318.741 210.076 318.187L213.151 300.136C213.242 299.603 213.104 299.091 212.815 298.691C212.469 298.213 211.908 297.897 211.261 297.897H196.329Z" fill="#999999"/>
<path d="M174.268 325.117C174.169 324.984 170.54 324.232 166.381 321.965C162.222 319.698 159.633 320.818 159.475 323.776C159.318 326.734 162.773 329.361 166.924 329.571C171.075 329.782 172.82 330.175 173.524 328.967C174.229 327.761 174.268 325.117 174.268 325.117Z" fill="#494949"/>
<path d="M177.31 323.464L172.136 324.706C171.66 324.82 171.267 325.106 171.01 325.483C170.745 325.871 170.624 326.356 170.703 326.853C170.775 327.305 171.001 327.697 171.323 327.98C171.682 328.297 172.16 328.478 172.672 328.454L177.891 328.205L177.31 323.464Z" fill="#FFBB7D"/>
<path d="M176.235 328.536C176.235 328.536 212.077 325.64 220.394 322.543C228.711 319.446 224.223 311.498 217.755 312.322C212.18 313.033 175.107 323.636 175.107 323.636L176.235 328.536Z" fill="#D33737"/>
<path d="M218.233 325.117C218.332 324.984 221.961 324.232 226.12 321.965C230.279 319.698 232.868 320.818 233.026 323.776C233.183 326.734 229.728 329.361 225.577 329.571C221.426 329.782 219.681 330.175 218.977 328.967C218.272 327.761 218.233 325.117 218.233 325.117Z" fill="#494949"/>
<path d="M215.191 323.464L220.365 324.706C220.841 324.82 221.234 325.106 221.491 325.483C221.756 325.871 221.877 326.356 221.798 326.853C221.726 327.305 221.5 327.697 221.178 327.98C220.819 328.297 220.341 328.478 219.829 328.454L214.61 328.205L215.191 323.464Z" fill="#FFBB7D"/>
<path d="M216.266 328.536C216.266 328.536 180.424 325.64 172.107 322.543C163.79 319.446 168.278 311.498 174.746 312.322C180.322 313.033 217.394 323.636 217.394 323.636L216.266 328.536Z" fill="#EF4B4B"/>
<path d="M266.509 133.334L267.313 136.393C267.313 136.393 265.074 139.335 266.057 140.572C267.039 141.809 267.516 138.798 268.418 138.891C269.32 138.984 275.457 143.785 275.57 142.169C275.823 138.533 271.883 136.912 270.69 135.504C269.496 134.096 269.976 134.918 269.976 134.918L269.368 131.524L266.509 133.334Z" fill="#FFBB7D"/>
<path d="M221.646 180.54C221.646 180.54 212.521 190.302 214.695 192.006C218.532 195.013 226.468 186.283 226.682 184.657C227.065 181.745 225.907 179.318 224.43 179.519C222.952 179.72 221.646 180.54 221.646 180.54Z" fill="#494949"/>
<path d="M190.698 117.227C190.698 117.227 180.903 115.894 177.451 116.743C173.999 117.591 176.842 119.208 183.414 122.199C189.628 125.027 190.699 124.948 191.783 123.464C193.004 121.792 194.125 120.529 193.059 119.688C191.992 118.846 190.698 117.227 190.698 117.227Z" fill="#494949"/>
<path d="M193.458 114.652L188.994 118.537C188.63 118.854 188.439 119.292 188.424 119.736C188.409 120.192 188.58 120.653 188.939 120.995C189.344 121.381 189.899 121.525 190.415 121.42C190.681 121.366 190.937 121.247 191.157 121.061L198.547 115.53L193.458 114.652Z" fill="#FFBB7D"/>
<path d="M220.75 174.768L221.383 182.196C221.429 182.737 221.735 183.198 222.171 183.46C222.421 183.61 222.714 183.696 223.026 183.693C223.042 183.693 223.058 183.693 223.074 183.693C223.496 183.69 223.879 183.528 224.168 183.265C224.494 182.967 224.699 182.539 224.699 182.061C224.699 179.479 224.699 174.716 224.699 174.716L220.75 174.768Z" fill="#FFBB7D"/>
<path d="M207.846 73.769L205.241 74.411C205.091 74.448 204.939 74.437 204.803 74.388C204.591 74.311 204.416 74.141 204.341 73.912L201.156 64.22C201.077 63.98 201.125 63.733 201.258 63.545C201.369 63.389 201.539 63.274 201.745 63.238L206.789 62.357C206.883 62.341 206.976 62.342 207.065 62.36C207.332 62.412 207.559 62.607 207.643 62.881L209.888 70.183C209.91 70.255 209.922 70.33 209.922 70.406V72.574C209.922 72.907 209.705 73.2 209.387 73.298L207.888 73.759C207.874 73.762 207.86 73.766 207.846 73.769Z" fill="#F2F2F2"/>
<path d="M210.804 76.9191L210.185 74.055C210.185 74.055 211.782 71.719 211.386 70.867C210.99 70.015 209.337 66.333 209.074 67.383C208.811 68.433 210.023 69.586 209.538 70.867C209.053 72.148 207.508 71.828 207.866 73.763L205.306 74.394C205.306 74.394 205.785 75.745 207.5 75.521L208.083 77.377L210.804 76.9191Z" fill="#FFBB7D"/>
<path d="M234.335 114.287C234.335 114.287 222.923 102.982 217.161 98.1332C212.438 94.1582 192.105 114.507 192.105 114.507L196.579 117.573C196.579 117.573 211.74 107.65 214.439 105.045C220.924 110.151 226.677 122.011 235.257 125.454C235.257 125.454 220.85 144.286 219.685 151.271C218.52 158.256 219.685 176.354 219.685 176.354H227.252C227.252 176.354 227.411 155.716 227.728 152.223C227.728 152.223 246.051 132.089 248.379 127.949C250.707 123.809 250.406 119.893 250.406 119.893L244.874 112.25L234.335 114.287Z" fill="#494949"/>
<path d="M235.256 91.9892C235.256 91.9892 236.053 103.148 234.335 114.287C234.335 114.287 244.222 121.385 250.405 119.893C250.405 119.893 252.421 103.059 252.979 96.4852C252.979 96.4852 263.607 126.288 265.758 134.51C265.758 134.51 269.033 134.959 270.689 133.334C270.689 133.334 260.117 92.9622 256.255 88.4842C252.393 84.0062 245.103 81.4552 245.103 81.4552H241.684C241.684 81.4552 221.005 91.2212 218.992 91.2442C216.978 91.2672 211.46 75.5222 211.46 75.5222L206.691 76.6592C206.691 76.6592 212.945 96.2782 216.396 97.3172C219.846 98.3552 235.256 91.9892 235.256 91.9892Z" fill="#15667D"/>
<path d="M241.602 81.789C241.602 81.789 239.369 83.423 240.912 88.822C240.912 88.822 246.859 86.193 246.93 83.494C247.001 80.794 243.236 79.871 241.602 81.789Z" fill="#C5EEF9"/>
<path d="M240.257 79.6751C240.257 79.6751 241.323 80.9791 241.683 86.0601C241.683 86.0601 245.488 85.0951 245.863 82.4981C245.863 82.4981 245.011 80.2451 244.815 77.6441C244.618 75.0431 240.257 79.6751 240.257 79.6751Z" fill="#E59553"/>
<path d="M235.256 74.7711C235.256 74.7711 232.206 75.1861 230.913 70.8681C229.62 66.5501 233.884 63.1891 236.096 64.6361C236.096 64.6361 237.956 59.8021 243.998 61.4471C249.836 63.0361 254.818 72.6911 246.925 77.3791L240.911 78.1351L235.256 74.7711Z" fill="#EF4B4B"/>
<path d="M234.012 71.3451C234.012 71.3451 233.077 77.7231 236.665 80.3391C240.253 82.9551 244.241 80.4951 244.845 78.3661C244.845 78.3661 247.647 78.4861 247.902 76.5511C248.158 74.6061 245.796 75.3641 245.796 75.3641L246.486 72.9601C246.486 72.9601 238.942 70.4001 238.516 66.9421C238.516 66.9421 234.282 67.2771 234.012 71.3451Z" fill="#FFBB7D"/>
<path d="M102.041 318.031C102.041 318.031 103.245 317.482 103.667 318.031C104.089 318.58 106.609 324.277 106.412 324.831C106.215 325.384 101.278 328.104 101.278 328.104L96.7122 327.398L102.041 318.031Z" fill="#0F5A6B"/>
<path d="M95.5552 313.394L98.9592 320.395L100.882 314.083L98.7402 308.813L95.5552 313.394Z" fill="#E59553"/>
<path d="M99.7683 321.197C99.7683 321.197 97.8233 321.169 97.4523 322.28C96.7123 324.492 88.1443 325.245 88.1443 327.967C88.1443 331.061 98.9593 329.303 102.041 329.353C104.253 329.389 103.714 328.399 103.667 325.361C103.619 322.323 103.882 321.255 102.896 320.966C101.911 320.676 99.7683 321.197 99.7683 321.197Z" fill="#15667D"/>
<path d="M98.3633 313.394V321.548C98.3633 322.381 98.8473 323.105 99.5543 323.448C99.8043 323.569 100.082 323.642 100.376 323.656C100.96 323.682 101.498 323.469 101.897 323.104C102.296 322.738 102.555 322.22 102.579 321.636L102.896 313.955L98.3633 313.394Z" fill="#FFBB7D"/>
<path d="M94.8041 246.811C94.8041 246.811 80.9841 274.113 82.3391 282.132C83.6941 290.151 95.2631 315.219 95.2631 315.219L100.264 313.569L99.1461 309.125C99.1461 309.125 91.5131 282.194 92.1791 279.447C92.8441 276.7 102.897 258.378 102.897 258.378V251.727L96.7391 243.673L94.8041 246.811Z" fill="#D33737"/>
<path d="M107.759 235.176C107.614 235.61 113.536 240.16 111.18 253.127C109.472 262.53 103.815 314.755 103.815 314.755L96.9111 314.881C96.9111 314.881 94.6031 262.137 97.6901 252.45C100.777 242.763 107.759 235.176 107.759 235.176Z" fill="#EF4B4B"/>
<path d="M75.0482 218.226L74.1862 219.17C74.0072 219.366 73.7412 219.437 73.4992 219.375C73.3982 219.349 73.3012 219.3 73.2172 219.228L68.5412 215.204C68.3362 215.027 68.2602 214.759 68.3172 214.516C68.3472 214.39 68.4122 214.27 68.5132 214.173L70.9762 211.816C71.1092 211.688 71.2812 211.624 71.4532 211.623C71.6252 211.622 71.7972 211.684 71.9322 211.81L75.6762 215.301C75.8772 215.489 75.9492 215.777 75.8602 216.037L75.1912 217.982C75.1612 218.073 75.1122 218.156 75.0482 218.226Z" fill="#999999"/>
<path d="M94.1102 208.553C94.1102 208.553 87.9912 222.23 86.9862 222.813C85.9812 223.395 76.4372 217.056 76.4372 217.056L75.3042 219.448C75.3042 219.448 84.0522 226.185 86.9872 227.044C89.9222 227.903 95.4282 215.362 95.4282 215.362L94.1102 208.553Z" fill="#FFBB7D"/>
<path d="M96.0741 203.911C96.0741 203.911 90.9881 209.524 91.3941 215.362C91.8001 221.2 96.1191 225.326 95.5521 230.95C94.9861 236.574 88.8021 248.013 88.4861 255.927C88.4861 255.927 107.541 255.029 113.535 244.132C113.535 244.132 106.789 231.34 107.161 224.088C107.534 216.835 105.498 205.628 104.275 204.56C103.052 203.492 99.4121 203.494 99.4121 203.494L96.0741 203.911Z" fill="#15667D"/>
<path d="M93.1673 201.915L94.2163 203.674C94.2163 203.674 94.9423 202.975 95.5593 203.911C96.1763 204.847 93.0553 207.492 94.3633 211.363C94.3633 211.363 99.7123 206.411 99.9963 202.655C100.281 198.899 96.0733 196.622 96.0733 196.622L93.1663 200.094V201.915H93.1673Z" fill="#E59553"/>
<path d="M91.3851 202.344C91.3851 202.344 87.5481 205.477 84.8441 202.65C82.1401 199.823 83.9761 193.623 85.9521 191.188C87.9281 188.753 91.3021 186.001 94.5181 186.627C98.6171 187.424 107.313 194.709 105.729 199.253C104.145 203.797 98.7481 203.992 98.7481 203.992C98.7481 203.992 97.8911 200.681 95.5521 199.638C93.2131 198.595 91.3851 202.344 91.3851 202.344Z" fill="#FF871A"/>
<path d="M86.9171 194.354C86.9171 194.354 86.2391 199.141 88.4861 201.519C90.7331 203.897 92.3181 204.238 94.2161 203.674C96.1141 203.11 96.7441 200.72 96.3231 199.183C96.3231 199.183 97.7901 198.211 97.3611 196.709C96.9321 195.207 95.6041 195.922 95.5521 196.924L94.7011 194.328C94.7011 194.328 88.7571 197.021 86.9171 194.354Z" fill="#FFBB7D"/>
<path d="M104.276 204.559C104.276 204.559 117.217 218.407 117.496 221.107C117.775 223.807 112.449 238.732 112.449 238.732L110.232 237.235C110.232 237.235 113.958 222.092 112.841 220.622C111.724 219.152 101.709 209.843 101.275 207.207C100.772 204.147 102.611 203.493 104.276 204.559Z" fill="#FFBB7D"/>
<path d="M110.232 237.235C110.232 237.235 108.966 236.601 107.793 237.04C106.62 237.479 105.218 238.705 105.73 239.668C106.241 240.63 108.748 239.854 110.396 240.017C112.044 240.18 112.449 238.733 112.449 238.733L111.52 237.041L110.232 237.235Z" fill="#FFBB7D"/>
<path d="M76.4361 217.055C76.4361 217.055 76.8641 215.362 75.6491 215.091C74.6491 214.868 73.7131 214.498 73.5581 214.85C73.3501 215.32 73.7081 215.674 74.5851 215.875C75.3171 216.042 75.1831 216.195 75.1831 216.195C75.1831 216.195 74.7741 217.632 75.1451 218.12L74.1601 219.283L75.3031 219.448L76.4581 218.81L76.4361 217.055Z" fill="#FFBB7D"/>
<path d="M295.273 320.344C295.273 320.344 296.857 319.288 297.531 320.344C298.205 321.4 299.138 323.718 301.056 324.418C302.974 325.118 307.963 327.066 307.725 328.777C307.448 330.772 290.005 329.494 289.685 328.057C289.365 326.619 289.963 320.8 291.005 320.134C292.046 319.468 293.911 321.18 293.911 321.18L295.273 320.344Z" fill="#494949"/>
<path d="M322.054 318.758C322.054 318.758 323.566 317.601 324.307 318.61C325.048 319.62 326.131 321.871 328.091 322.445C330.051 323.018 335.156 324.636 335.031 326.359C334.885 328.368 317.396 328.233 316.982 326.819C316.568 325.405 316.785 319.56 317.781 318.827C318.777 318.094 320.749 319.68 320.749 319.68L322.054 318.758Z" fill="#494949"/>
<path d="M318.204 312.849L319.438 321.024C319.521 321.573 319.824 322.033 320.242 322.328C320.661 322.624 321.195 322.756 321.74 322.651C322.295 322.544 322.756 322.209 323.035 321.756C323.231 321.438 323.338 321.061 323.324 320.664L323.021 311.799L318.204 312.849Z" fill="#FFBB7D"/>
<path d="M293.183 311.201L291.743 321.929C291.655 322.582 291.902 323.209 292.357 323.628C292.596 323.848 292.893 324.011 293.23 324.091L293.642 324.189C294.22 324.326 294.796 324.191 295.239 323.87C295.629 323.588 295.917 323.161 296.013 322.648L298.167 311.201H293.183Z" fill="#FFBB7D"/>
<path d="M294.735 242.4C294.735 242.4 292.91 243.988 294.798 262.944C296.686 281.9 291.726 313.901 291.726 313.901C291.726 313.901 296.124 315.036 299.56 315.116C299.56 315.116 307.147 286.688 308.989 265.687C308.989 265.687 314.533 307.468 316.596 315.178C316.596 315.178 320.757 317.03 324.498 314.154C324.498 314.154 323.4 258.825 317.115 243.704C310.83 228.583 294.735 242.4 294.735 242.4Z" fill="#FF871A"/>
<path d="M329.271 198.05L332.937 184.748C333.001 184.515 333.135 184.319 333.311 184.176C333.544 183.988 333.85 183.894 334.166 183.937L342.48 185.066C342.821 185.112 343.102 185.306 343.271 185.571C343.441 185.836 343.5 186.171 343.399 186.501L339.454 199.465C339.376 199.72 339.214 199.93 339.005 200.07C338.796 200.21 338.54 200.279 338.274 200.253L330.24 199.462C329.866 199.425 329.559 199.211 329.385 198.916C329.238 198.664 329.187 198.357 329.271 198.05Z" fill="#999999"/>
<path d="M322.234 214.19C322.234 214.19 329.041 207.111 331.595 200.505L334.937 202.176C334.937 202.176 328.18 219.993 323.105 221.875C318.03 223.757 314.937 218.944 314.937 218.944L322.234 214.19Z" fill="#FFBB7D"/>
<path d="M301.444 196.118C301.444 196.118 289.271 198.705 287.744 218.732L290.471 218.81C290.471 218.81 291.853 221.044 291.744 226.138C291.605 232.664 290.091 242.566 291.545 244.39C294.133 247.637 317.246 249.94 319.878 244.78C322.51 239.62 318.742 217.784 318.742 217.784L322.234 214.191C322.234 214.191 314.611 198.225 310.072 196.815C305.532 195.405 301.444 196.118 301.444 196.118Z" fill="#494949"/>
<path d="M312.566 187.334C312.566 187.334 314.906 185.508 313.59 182.725C313.59 182.725 315.041 180.595 313.137 178.449C311.309 176.388 308.106 176.817 306.607 178.168C306.607 178.168 300.947 176.699 298.826 182.725C298.826 182.725 296.067 184.087 297.561 188.345C299.055 192.603 296.093 194.54 296.093 194.54C296.093 194.54 300.122 198.141 304.77 194.68C307.756 192.456 312.566 187.334 312.566 187.334Z" fill="#494949"/>
<path d="M303.329 194.866C303.329 194.866 300.376 194.576 299.789 197.562C299.201 200.549 300.892 207.012 304.548 210.29C304.548 210.29 305.085 204.071 308.426 202.703C308.426 202.703 312.299 203.866 314.119 207.147C314.119 207.147 312.948 195.976 308.28 194.858C303.611 193.741 303.329 194.866 303.329 194.866Z" fill="#15667D"/>
<path d="M309.161 193.389C309.161 193.389 307.28 196.235 309.535 200.073C309.535 200.073 308.896 201.506 308.426 202.703C308.426 202.703 303.621 200.926 302.732 197.954C302.732 197.954 303.37 193.226 302.732 191.418C302.094 189.609 309.161 193.389 309.161 193.389Z" fill="#E59553"/>
<path d="M312.221 185.131C312.221 185.131 313.718 192.87 309.534 194.912C305.351 196.955 302.929 194.138 302.102 191.317C302.102 191.317 300.177 191.377 299.906 189.904C299.655 188.537 300.608 187.887 301.714 188.672C301.714 188.672 302.263 186.422 301.175 185.207C301.175 185.207 307.543 179.671 312.221 185.131Z" fill="#FFBB7D"/>
<path d="M290.47 218.81C290.47 218.81 289.381 240.171 300.609 255.209L303.273 252.223C303.273 252.223 295.043 237.009 296.49 218.81H290.47Z" fill="#FFBB7D"/>
<path d="M334.937 202.177C334.937 202.177 338.046 200.584 338.553 199.008C339.019 197.561 340.088 194.319 338.88 193.889C337.672 193.459 336.296 193.168 335.844 194.93C335.391 196.691 334.386 197.896 333.475 198.54C332.564 199.184 331.683 198.744 331.595 200.505C331.507 202.267 334.937 202.177 334.937 202.177Z" fill="#FFBB7D"/>
</svg>
